#!OML:ASF X:\für Bonn\!DataBase\2005_08_10_Bjorn_Final\c3d\bjorn.ASF
:FULLY-SPECIFIED
:DEGREES
141
root -1.35485 11.9356 18.5104 -184.295 26.1759 -544.893
lowerback 50.4413 -14.6282 10.1458
upperback 22.921 -1.50167 8.12062
thorax 5.33946 3.1642 5.25014
lowerneck 2.64029 -11.4454 15.4481
upperneck 3.80295 -14.7669 0.944318
head -0.294722 -7.1362 -1.9322
rclavicle 8.5875e-014 3.57812e-014
rhumerus 28.7238 -43.6232 -70.7302
rradius 12.5434
rwrist 20.379
rhand -9.00851 6.8862
rfingers 7.12502
rthumb 16.9382 -22.3952
lclavicle 8.5875e-014 3.57812e-014
lhumerus -7.68138 -12.1383 69.3546
lradius 74.5891
lwrist 10.096
lhand -34.7253 -362.58
lfingers 7.12502
lthumb -7.87964 27.2527
rfemur -78.3545 -14.0218 5.88111
rtibia 109.867
rfoot -23.291 27.8791
rtoes -20.4651
lfemur -62.4853 35.1815 -12.8451
ltibia 123.052
lfoot -29.6533 4.94716
ltoes -39.9725
142
root -1.34897 11.803 18.5059 -184.925 26.3564 -545.077
lowerback 50.5437 -14.7387 10.1104
upperback 22.8841 -1.61433 8.16248
thorax 5.29353 3.10871 5.35298
lowerneck 2.80999 -11.4774 15.1446
upperneck 4.11978 -14.7795 0.989832
head -0.193947 -7.11906 -1.87101
rclavicle 2.22639e-014 -1.55052e-014
rhumerus 28.5555 -44.7585 -70.7825
rradius 12.2725
rwrist 21.635
rhand -9.42724 6.72087
rfingers 7.12502
rthumb 16.5351 -22.5946
lclavicle 2.22639e-014 -1.55052e-014
lhumerus -7.97349 -12.5549 68.5965
lradius 73.6675
lwrist 10.173
lhand -34.6969 -361.998
lfingers 7.12502
lthumb -7.85228 27.8363
rfemur -78.6764 -14.3288 5.70286
rtibia 110.913
rfoot -23.4739 28.2843
rtoes -20.2563
lfemur -62.2966 36.5191 -12.115
ltibia 124.191
lfoot -29.4387 4.19087
ltoes -40.7489
143
root -1.34295 11.6692 18.502 -185.586 26.505 -545.258
lowerback 50.6361 -14.8629 10.0904
upperback 22.8555 -1.73043 8.20013
thorax 5.25949 3.05737 5.44724
lowerneck 2.9506 -11.5207 14.8519
upperneck 4.48362 -14.8124 0.979344
head -0.0804132 -7.10919 -1.83193
rclavicle 5.40694e-014 4.77083e-014
rhumerus 28.2258 -45.8177 -70.6535
rradius 12.0575
rwrist 22.7236
rhand -9.87807 6.48978
rfingers 7.12502
rthumb 16.1011 -22.8613
lclavicle 5.40694e-014 4.77083e-014
lhumerus -8.23202 -13.1019 67.8043
lradius 72.7161
lwrist 10.329
lhand -34.6658 -361.621
lfingers 7.12502
lthumb -7.82219 28.2142
rfemur -78.9669 -14.6799 5.51805
rtibia 111.959
rfoot -23.6421 28.7141
rtoes -20.0689
lfemur -62.0512 37.8967 -11.3036
ltibia 125.326
lfoot -29.2367 3.40789
ltoes -41.5206
144
root -1.3361 11.5333 18.4985 -186.258 26.635 -545.42
lowerback 50.6811 -15.0022 10.0903
upperback 22.8643 -1.85595 8.21382
thorax 5.27492 3.01264 5.51232
lowerneck 3.05939 -11.5464 14.5585
upperneck 4.85586 -14.8285 1.00818
head 0.045378 -7.09071 -1.78396
rclavicle -5.08889e-014 1.00585e-013
rhumerus 28.1578 -47.2341 -70.8585
rradius 11.7937
rwrist 24.1413
rhand -10.3282 6.28958
rfingers 7.12502
rthumb 15.6676 -23.0961
lclavicle -5.08889e-014 1.00585e-013
lhumerus -8.43757 -13.7072 66.9693
lradius 71.7303
lwrist 10.5028
lhand -34.622 -361.363
lfingers 7.12502
lthumb -7.77993 28.4735
rfemur -79.2277 -15.0518 5.33395
rtibia 113
rfoot -23.7874 29.1699
rtoes -19.771
lfemur -61.7431 39.3696 -10.3748
ltibia 126.455
lfoot -29.0887 2.57186
ltoes -42.1532
145
root -1.32802 11.3978 18.4957 -186.961 26.7411 -545.603
lowerback 50.7072 -15.1431 10.0667
upperback 22.8986 -1.99109 8.21499
thorax 5.32107 2.96683 5.57826
lowerneck 3.12669 -11.5716 14.3008
upperneck 5.24663 -14.8504 0.977674
head 0.175496 -7.07425 -1.76341
rclavicle -9.54166e-015 -6.48038e-014
rhumerus 28.3984 -49.0059 -71.4098
rradius 11.4725
rwrist 25.9576
rhand -10.7764 6.13373
rfingers 7.12502
rthumb 15.2359 -23.2852
lclavicle -9.54166e-015 -6.48038e-014
lhumerus -8.53139 -14.357 66.1021
lradius 70.6679
lwrist 10.6821
lhand -34.5477 -361.211
lfingers 7.12502
lthumb -7.70825 28.6287
rfemur -79.4692 -15.4817 5.13551
rtibia 114.045
rfoot -23.9529 29.6318
rtoes -19.5062
lfemur -61.3241 40.886 -9.35223
ltibia 127.556
lfoot -29.0089 1.61135
ltoes -42.6839
146
root -1.3195 11.2627 18.4936 -187.689 26.8266 -545.785
lowerback 50.7423 -15.2881 10.0648
upperback 22.9222 -2.1195 8.2005
thorax 5.35454 2.92897 5.61545
lowerneck 3.22505 -11.6057 14.1017
upperneck 5.61939 -14.8737 0.918826
head 0.287577 -7.05895 -1.75791
rclavicle -2.54444e-014 -1.92026e-013
rhumerus 28.6613 -50.9326 -72.0349
rradius 11.1956
rwrist 27.8901
rhand -11.0918 5.94117
rfingers 7.12502
rthumb 14.9321 -23.5006
lclavicle -2.54444e-014 -1.92026e-013
lhumerus -8.58022 -15.0872 65.2339
lradius 69.5687
lwrist 10.8537
lhand -34.5005 -361.177
lfingers 7.12502
lthumb -7.66272 28.6638
rfemur -79.6843 -15.9401 4.92867
rtibia 115.073
rfoot -24.1013 30.1115
rtoes -19.177
lfemur -60.808 42.4714 -8.21176
ltibia 128.642
lfoot -28.9803 0.489636
ltoes -42.8253
147
root -1.31007 11.1261 18.4927 -188.431 26.8836 -545.984
lowerback 50.7671 -15.4284 10.0061
upperback 22.9603 -2.26747 8.19454
thorax 5.40452 2.87651 5.69257
lowerneck 3.30279 -11.6194 13.8583
upperneck 6.01961 -14.8741 0.823516
head 0.413067 -7.032 -1.7608
rclavicle -1.43125e-013 -4.77083e-014
rhumerus 28.9849 -52.7903 -72.6681
rradius 10.9095
rwrist 29.7304
rhand -11.3457 5.76875
rfingers 7.12502
rthumb 14.6874 -23.691
lclavicle -1.43125e-013 -4.77083e-014
lhumerus -8.63041 -15.8158 64.3808
lradius 68.467
lwrist 11.0368
lhand -34.443 -361.223
lfingers 7.12502
lthumb -7.60717 28.6205
rfemur -79.8852 -16.4545 4.70189
rtibia 116.102
rfoot -24.2712 30.5852
rtoes -18.948
lfemur -60.1982 44.0894 -6.97166
ltibia 129.696
lfoot -28.9891 -0.698479
ltoes -42.9101
148
root -1.29961 10.9895 18.4924 -189.209 26.934 -546.186
lowerback 50.7692 -15.5782 10.0055
upperback 23.0108 -2.40214 8.14639
thorax 5.4722 2.84557 5.69558
lowerneck 3.38073 -11.6508 13.6422
upperneck 6.40234 -14.8971 0.79174
head 0.535034 -7.01671 -1.74645
rclavicle 9.54166e-014 3.77691e-014
rhumerus 29.2189 -54.7036 -73.2478
rradius 10.6674
rwrist 31.4411
rhand -11.5245 5.59957
rfingers 7.12502
rthumb 14.5152 -23.8727
lclavicle 9.54166e-014 3.77691e-014
lhumerus -8.5805 -16.6885 63.4565
lradius 67.3837
lwrist 11.2675
lhand -34.3857 -361.382
lfingers 7.12502
lthumb -7.55182 28.4633
rfemur -80.0605 -17.0006 4.46168
rtibia 117.126
rfoot -24.3188 31.1498
rtoes -18.4141
lfemur -59.4265 45.818 -5.54386
ltibia 130.737
lfoot -29.1057 -2.00624
ltoes -42.8346
149
root -1.28889 10.852 18.4937 -189.986 26.9634 -546.366
lowerback 50.758 -15.7302 9.99102
upperback 23.0869 -2.53685 8.10959
thorax 5.57028 2.81673 5.71888
lowerneck 3.42742 -11.6767 13.4376
upperneck 6.76977 -14.917 0.718493
head 0.652891 -7.00191 -1.74864
rclavicle -9.54166e-015 -8.26944e-014
rhumerus 29.8184 -56.8594 -74.1929
rradius 10.4049
rwrist 33.4381
rhand -11.6619 5.52566
rfingers 7.12502
rthumb 14.3828 -23.956
lclavicle -9.54166e-015 -8.26944e-014
lhumerus -8.51575 -17.5235 62.5714
lradius 66.3327
lwrist 11.434
lhand -34.3034 -361.596
lfingers 7.12502
lthumb -7.47243 28.2517
rfemur -80.2338 -17.5869 4.24444
rtibia 118.152
rfoot -24.502 31.6351
rtoes -18.2059
lfemur -58.5116 47.6104 -3.919
ltibia 131.746
lfoot -29.2191 -3.30292
ltoes -42.8203
150
root -1.27718 10.7144 18.4968 -190.774 26.9758 -546.549
lowerback 50.7652 -15.8771 9.97032
upperback 23.1454 -2.66783 8.07242
thorax 5.64574 2.78766 5.74213
lowerneck 3.44948 -11.6986 13.1833
upperneck 7.19178 -14.9368 0.668794
head 0.797927 -6.98437 -1.7402
rclavicle -2.41722e-013 -1.43523e-013
rhumerus 30.6701 -59.2168 -75.4137
rradius 10.1665
rwrist 35.6861
rhand -11.6638 5.55261
rfingers 7.12502
rthumb 14.3809 -23.9292
lclavicle -2.41722e-013 -1.43523e-013
lhumerus -8.44867 -18.4436 61.6708
lradius 65.3024
lwrist 11.5828
lhand -34.2313 -361.863
lfingers 7.12502
lthumb -7.40288 27.9878
rfemur -80.391 -18.2165 4.01093
rtibia 119.169
rfoot -24.6355 32.1706
rtoes -17.8393
lfemur -57.435 49.4454 -2.10566
ltibia 132.726
lfoot -29.3532 -4.57392
ltoes -42.8717
